<svg xmlns="http://www.w3.org/2000/svg" xmlns:xlink="http://www.w3.org/1999/xlink" width="793" zoomAndPan="magnify" viewBox="0 0 595.5 842.249979" height="1122" preserveAspectRatio="xMidYMid meet" version="1.0"><defs><clipPath id="43e8da1c68"><path d="M 133.964844 258.816406 L 460.78125 258.816406 L 460.78125 643.789062 L 133.964844 643.789062 Z M 133.964844 258.816406 " clip-rule="nonzero"/></clipPath></defs><path fill="#ffffff" d="M 297.585938 287.445312 C 298.703125 287.25 297.207031 293.90625 296.996094 294.765625 C 296.375 297.296875 295.492188 299.988281 293.683594 301.925781 C 293.667969 299.15625 295.058594 296.574219 295.164062 293.804688 C 295.210938 292.425781 294.46875 291.347656 296.460938 291.539062 C 296.5 290.199219 296.515625 288.453125 297.585938 287.445312 C 297.910156 287.390625 296.648438 288.335938 297.585938 287.445312 " fill-opacity="1" fill-rule="evenodd"/><path fill="#ffffff" d="M 388.257812 338.257812 C 387.566406 339.171875 385.707031 339.078125 384.054688 339.171875 C 384.90625 338.472656 387.234375 337.9375 388.257812 338.257812 " fill-opacity="1" fill-rule="evenodd"/><path fill="#ffffff" d="M 239.046875 382.785156 C 241.296875 382.710938 239.847656 385.820312 239.125 386.921875 C 237.628906 389.179688 237.03125 391.28125 236.117188 393.855469 C 234.511719 398.382812 232.546875 402.828125 232.089844 407.667969 C 231.175781 403.078125 232.960938 398.429688 234.804688 394.3125 C 235.789062 392.125 236.859375 389.984375 237.839844 387.796875 C 238.289062 386.773438 238.722656 385.742188 239.101562 384.6875 C 239.03125 383.949219 238.722656 383.515625 239.046875 382.785156 C 239.351562 382.777344 238.660156 383.648438 239.046875 382.785156 " fill-opacity="1" fill-rule="evenodd"/><path fill="#ffffff" d="M 261.457031 396.917969 C 263.277344 396.59375 261.96875 403.9375 261.820312 405.148438 C 261.300781 409.375 260.570312 413.578125 260.035156 417.808594 C 259.609375 421.15625 259.199219 424.5625 259.167969 427.945312 C 259.160156 429.652344 259.539062 431.371094 259.292969 433.085938 C 259.027344 434.886719 257.546875 436.089844 257.421875 437.980469 C 256.941406 445.25 256.359375 452.363281 255.320312 459.597656 C 254.808594 463.191406 254.296875 466.78125 253.855469 470.378906 C 253.621094 472.265625 253.414062 474.15625 253.21875 476.050781 C 253.0625 477.609375 251.699219 478.964844 251.9375 480.515625 C 251.644531 474.078125 252.644531 467.632812 253.613281 461.289062 C 254.722656 454.03125 255.546875 446.769531 256.375 439.46875 C 257.191406 432.320312 258.097656 425.175781 259.003906 418.03125 C 259.875 411.199219 261.644531 403.804688 261.457031 396.917969 C 261.9375 396.832031 261.464844 397.191406 261.457031 396.917969 " fill-opacity="1" fill-rule="evenodd"/><g clip-path="url(#43e8da1c68)"><path fill="#ffffff" d="M 365.515625 424.609375 C 367.890625 424.261719 365.921875 420.53125 365.105469 419.730469 C 364.429688 421.09375 365.199219 423.265625 365.515625 424.609375 Z M 329.246094 387.175781 C 329.09375 384.253906 329.449219 380.273438 327.828125 377.960938 C 327.632812 380.566406 327.921875 384.539062 329.246094 387.175781 Z M 262.164062 375.175781 C 261.261719 375.316406 261.214844 374.269531 260.324219 374.410156 C 260.472656 378.351562 258.191406 383.390625 261.519531 386.601562 C 260.527344 381.902344 266.511719 373.253906 261.128906 370.042969 C 260.246094 372.042969 262.75 373.347656 262.164062 375.175781 C 261.09375 375.347656 262.683594 373.546875 262.164062 375.175781 Z M 335.863281 372.355469 C 335.996094 370.144531 336.570312 367.492188 334.808594 366.398438 C 333.527344 367.972656 333.699219 371.363281 335.863281 372.355469 Z M 330.984375 370.570312 C 332.289062 369.25 332.078125 365.039062 330.527344 364.0625 C 330.945312 366.289062 331.085938 368.484375 330.984375 370.570312 Z M 336.941406 367.15625 C 336.933594 366.980469 336.925781 366.808594 336.925781 366.628906 C 337.304688 366.816406 337.71875 366.902344 338.152344 366.863281 C 337.648438 365.527344 337.136719 364.023438 335.949219 363.117188 C 335.4375 363.402344 336.113281 364.265625 335.683594 364.753906 C 337.414062 364.699219 336.207031 366.5 336.941406 367.15625 C 336.933594 366.996094 336.484375 366.753906 336.941406 367.15625 Z M 263.84375 370.253906 C 264.738281 367.5625 265.023438 364.195312 262.765625 362.675781 C 261.828125 365.1875 261.835938 368.226562 263.84375 370.253906 Z M 264.863281 362.078125 C 264.960938 360.8125 266.304688 357.308594 263.859375 357.484375 C 263.195312 359.019531 263.394531 361.0625 264.863281 362.078125 C 264.96875 360.75 263.472656 361.113281 264.863281 362.078125 Z M 409.78125 353.21875 C 410.542969 352.980469 412.398438 353.691406 412.179688 352.621094 C 411.132812 352.605469 410.253906 352.738281 409.78125 353.21875 Z M 413.714844 353.125 C 414.117188 353.117188 414.515625 353.101562 414.925781 353.09375 C 415.132812 352.054688 413.453125 352.09375 413.714844 353.125 Z M 262.644531 357.789062 C 263.386719 356.679688 263.597656 354.777344 261.976562 354.816406 C 261.566406 355.6875 261.542969 357.367188 262.644531 357.789062 C 263.25 356.894531 261.648438 357.40625 262.644531 357.789062 Z M 415.523438 352.535156 C 418.601562 353.132812 425.660156 352.566406 428.171875 350.890625 C 423.324219 350.628906 420.050781 352.566406 415.523438 352.535156 Z M 399.785156 352.101562 C 398.699219 351.28125 396.558594 351.425781 394.921875 351.125 C 395.386719 352.3125 399.179688 352.839844 399.785156 352.101562 Z M 422.394531 349.394531 C 423.285156 350.527344 426.753906 349.472656 427.824219 348.984375 C 426.039062 348.339844 424.621094 349.621094 422.394531 349.394531 Z M 266.25 356.34375 C 266.605469 354.539062 267.652344 353.046875 265.542969 352.289062 C 264.15625 353.476562 264.914062 355.523438 266.25 356.34375 Z M 427.46875 346.554688 C 427.832031 348.160156 430.632812 347.648438 431.089844 346.480469 C 430.035156 346.050781 429.097656 346.742188 427.46875 346.554688 Z M 264.351562 352.855469 C 264.511719 351.328125 265.433594 349.984375 263.960938 349.0625 C 263.292969 350.324219 262.734375 352.109375 264.351562 352.855469 Z M 419.546875 344.027344 C 421.308594 344.703125 425.714844 344.957031 426.488281 343.863281 C 425.496094 344.050781 421.039062 342.492188 419.546875 344.027344 Z M 266.644531 347.632812 C 266.683594 348.6875 266.535156 350.558594 267.933594 350.867188 C 267.996094 349.8125 269.539062 347.742188 268.738281 346.789062 C 268.296875 347.566406 267.53125 348.007812 266.644531 347.632812 C 266.699219 349.078125 267.597656 348.039062 266.644531 347.632812 Z M 182.628906 349.355469 C 184.179688 349.171875 186.53125 349.683594 187.148438 348.710938 C 185.855469 349.109375 183.753906 348.8125 182.628906 349.355469 Z M 412.855469 342.289062 C 414.582031 341.59375 417.351562 343.253906 418.882812 341.601562 C 417.222656 340.574219 412.410156 340.832031 412.855469 342.289062 Z M 423.425781 341.769531 C 424.519531 341.515625 426.234375 342.167969 427.046875 341.132812 C 425.03125 340.5625 422.734375 339.972656 420.679688 340.738281 C 420.789062 341.492188 423.046875 342.367188 423.699219 342.152344 C 423.78125 341.972656 423.691406 341.839844 423.425781 341.769531 C 425.09375 341.382812 424.914062 342.785156 423.425781 341.769531 Z M 175.320312 346.8125 C 175.5 348.765625 178.765625 347.175781 176.8125 346.230469 C 176.5625 346.648438 175.847656 346.65625 175.320312 346.8125 Z M 409.488281 340.738281 C 410.292969 340.722656 411.273438 340.847656 411.289062 340.148438 C 410.675781 340.328125 409.183594 339.753906 409.488281 340.738281 Z M 404.011719 339.234375 C 404.839844 339.445312 405.882812 339.09375 406.449219 339.996094 C 406.097656 340.046875 404.917969 339.738281 405.253906 340.570312 C 407.199219 340.328125 409.183594 339.933594 410.960938 339.070312 C 409.125 339.296875 405.375 337.472656 404.011719 339.234375 C 404.71875 339.414062 405.261719 337.621094 404.011719 339.234375 Z M 187.398438 345.980469 C 187.53125 345.238281 188.523438 343.546875 187.335938 343.273438 C 186.761719 343.710938 185.597656 345.945312 187.398438 345.980469 Z M 403.382812 337.890625 C 402.769531 337.914062 402.164062 337.921875 401.5625 337.9375 C 401.476562 339.273438 403.210938 338.566406 403.382812 337.890625 Z M 190.632812 342.65625 C 190.121094 343.710938 189.320312 344.367188 189.5 345.664062 C 192.207031 345.734375 194.324219 344.910156 194.558594 342.019531 C 193.167969 341.988281 192.066406 342.863281 190.632812 342.65625 C 190.175781 343.585938 192.515625 342.933594 190.632812 342.65625 Z M 196.347656 341.429688 C 196.21875 342.167969 194.300781 345.492188 197.023438 344.128906 C 197.109375 343.335938 197.699219 342.863281 198 342.167969 C 198.683594 340.570312 197.054688 341.515625 196.347656 341.429688 C 196.203125 342.289062 197.304688 341.546875 196.347656 341.429688 Z M 198.527344 343.824219 C 201.421875 344.445312 203.027344 345.042969 202.429688 341.460938 C 201.980469 338.746094 198.730469 342.265625 198.527344 343.824219 C 199.652344 344.066406 198.777344 341.917969 198.527344 343.824219 Z M 183.675781 342.273438 C 184.449219 341.863281 186.070312 342.195312 186.0625 341.125 C 185.070312 341.351562 183.792969 341.3125 183.675781 342.273438 Z M 204.789062 340.148438 C 204.988281 339.117188 203.980469 339.25 203.546875 338.816406 C 203.3125 339.855469 204.214844 339.855469 204.789062 340.148438 Z M 191.507812 341.273438 C 192.355469 341.964844 193.664062 341.304688 194.613281 341.3125 C 195.621094 341.320312 196.070312 339.542969 196.277344 338.449219 C 194.605469 338.878906 191.773438 339.0625 191.507812 341.273438 C 192.464844 342.058594 191.757812 339.171875 191.507812 341.273438 Z M 327.152344 336.171875 C 328.710938 338.753906 328.835938 344.183594 331.898438 345.554688 C 329.566406 342.507812 329.542969 338.273438 327.433594 335.078125 C 327.480469 335.480469 327.386719 335.84375 327.152344 336.171875 C 328.859375 338.992188 327.371094 335.914062 327.152344 336.171875 Z M 175.4375 339.210938 C 175.886719 339.621094 177.011719 339.4375 176.933594 338.628906 C 176.191406 338.605469 175.46875 338.621094 175.4375 339.210938 Z M 196.945312 340.871094 C 199 340.863281 199.542969 339.542969 199.902344 338.085938 C 197.898438 337.304688 197.15625 339.304688 196.945312 340.871094 Z M 396.636719 333.976562 C 396.597656 332.875 394.074219 332.703125 393.292969 333.238281 C 394.558594 333.347656 395.648438 333.617188 396.636719 333.976562 Z M 200.546875 339.972656 C 201.234375 339.949219 201.648438 340.375 202.375 340.203125 C 202.679688 339.203125 203.105469 338.25 203.207031 337.195312 C 201.816406 337.21875 201.21875 338.621094 200.546875 339.972656 C 201.257812 339.949219 201.011719 339.039062 200.546875 339.972656 Z M 195.070312 337.929688 C 196.378906 338 196.921875 337.386719 197.457031 336.777344 C 196.324219 337.472656 195.464844 336.730469 195.070312 337.929688 Z M 199.289062 337.558594 C 200.003906 337.371094 200.683594 337.164062 200.761719 336.441406 C 199.09375 336.285156 199.542969 336.953125 199.289062 337.558594 Z M 206.269531 338.753906 C 209.605469 339.171875 210.355469 337.753906 211.613281 334.828125 C 208.558594 334.574219 207.632812 336.488281 206.269531 338.753906 C 207.796875 338.949219 207.394531 336.882812 206.269531 338.753906 Z M 266.605469 333.527344 C 267.738281 333.59375 267.855469 332.820312 268.097656 332.136719 C 266.746094 331.859375 267.027344 332.984375 266.605469 333.527344 Z M 195.914062 335.734375 C 197.605469 336.363281 199.296875 335.230469 199.792969 333.472656 C 197.960938 333.773438 196.308594 334.207031 195.914062 335.734375 Z M 202.484375 332.050781 C 201.925781 333.480469 200.667969 334.394531 199.847656 335.636719 C 202.695312 335.78125 203.304688 333.75 204.585938 331.734375 C 203.796875 331.648438 203.292969 332.199219 202.484375 332.050781 C 201.910156 333.519531 203.539062 332.246094 202.484375 332.050781 Z M 190.414062 333.152344 C 191.507812 333.542969 193.519531 332.703125 194.007812 331.710938 C 192.386719 331.828125 191.144531 332.269531 190.414062 333.152344 Z M 273.214844 331.460938 C 274.046875 331.207031 274.261719 330.40625 274.371094 329.53125 C 273.246094 329.53125 272.773438 330.949219 273.214844 331.460938 Z M 208.222656 331.914062 C 207.519531 332.050781 209.261719 329.359375 207.152344 331.230469 C 205.898438 332.339844 204.679688 333.535156 204.371094 335.253906 C 204.820312 335.125 208.261719 331.679688 208.222656 331.914062 C 207.472656 332.066406 208.160156 332.230469 208.222656 331.914062 Z M 270.453125 329.625 C 270.894531 329.570312 272.664062 330.089844 272.238281 328.777344 C 271.59375 328.957031 271.003906 329.242188 270.453125 329.625 C 271.019531 329.554688 271.011719 329.3125 270.453125 329.625 Z M 207.671875 334.378906 C 208.960938 333.253906 211.441406 331.757812 211.203125 330.222656 C 209.566406 331.207031 208.589844 332.765625 207.671875 334.378906 Z M 378.507812 334.960938 C 378.6875 333.765625 380.578125 334.292969 381.199219 333.527344 C 379.050781 332.410156 375.863281 331.585938 373.621094 332.90625 C 373.289062 331.414062 373.863281 331.570312 371.875 330.957031 C 371.226562 330.757812 370.566406 330.601562 369.898438 330.5 C 368.339844 330.292969 368.09375 330.058594 369.054688 331.105469 C 368.480469 330.84375 366.507812 330.902344 367.207031 329.785156 C 366.492188 329.625 365.78125 329.460938 365.074219 329.289062 C 364.871094 330.351562 366.355469 329.664062 366.601562 330.34375 C 363.53125 330.035156 360.636719 328.082031 357.496094 328.382812 C 357.898438 328.640625 357.90625 328.910156 357.519531 329.207031 C 356.8125 329.035156 356.09375 328.863281 355.363281 328.792969 C 354.144531 328.683594 353.097656 329.71875 351.757812 328.523438 C 352.394531 328.585938 352.679688 328.304688 352.640625 327.683594 C 352.167969 327.871094 350.40625 327.125 350.222656 327.46875 C 350.367188 327.484375 351.957031 328.273438 351.152344 328.53125 C 348.949219 327.988281 346.785156 327.011719 344.472656 327.070312 C 347.179688 328.515625 349.980469 329.839844 352.960938 330.617188 C 355.890625 331.382812 358.976562 331.339844 361.886719 332.199219 C 364.191406 332.882812 365.632812 334.796875 367.976562 335.558594 C 370.363281 336.332031 370.90625 337.332031 372.699219 338.722656 C 380.640625 344.902344 390.289062 345.507812 399.117188 349.402344 C 399.488281 348.71875 399.21875 347.371094 400.265625 347.207031 C 400.351562 348.960938 398.800781 349.210938 400.722656 350.117188 C 401.507812 350.480469 402.335938 346.246094 402.957031 345.515625 C 402.972656 346.835938 402.097656 347.804688 401.871094 349.0625 C 401.621094 350.488281 403.554688 350.746094 404.601562 351.714844 C 404.902344 350.125 405.207031 348.324219 406.316406 347.066406 C 406.292969 348.703125 405.183594 350.046875 405.207031 351.699219 C 405.710938 351.691406 406.222656 351.675781 406.726562 351.667969 C 406.152344 349.660156 408.765625 348.644531 409.332031 346.992188 C 409.125 347.851562 408.679688 348.402344 409.378906 349.164062 C 408.632812 349.96875 407.480469 350.417969 407.324219 351.652344 C 413.683594 351.0625 419.78125 349.085938 425.976562 347.679688 C 423.410156 347.6875 420.835938 347.625 418.277344 347.835938 C 416.816406 347.953125 415.359375 348.136719 413.957031 348.519531 C 412.503906 348.90625 412.871094 350.503906 411.839844 350.730469 C 412.007812 349.480469 412.070312 349.550781 411.195312 348.851562 C 412.109375 347.144531 414.558594 347.742188 416.097656 347.269531 C 419.554688 346.207031 414.195312 346.136719 414.140625 346.058594 C 415.570312 344.84375 417.980469 346.183594 419.253906 344.851562 C 412.535156 342.492188 405.796875 345.121094 399.023438 345.609375 C 402.351562 342.832031 407.90625 343.207031 411.945312 342.855469 C 406.144531 339.863281 399.785156 343.796875 393.851562 344.097656 C 393.734375 343.359375 395.007812 343.839844 394.726562 342.988281 C 393.230469 342.082031 390.734375 344.859375 389.609375 343.375 C 393.53125 341.675781 397.691406 341.019531 401.925781 340.644531 C 398.984375 337.328125 391.988281 341.3125 388.328125 340.964844 C 391.957031 339.46875 396.078125 339.855469 399.753906 338.519531 C 396.480469 336.277344 392.003906 339.476562 388.570312 337.96875 C 390.6875 337.875 392.78125 337.574219 394.898438 337.558594 C 391.820312 334.488281 386.1875 335.929688 382.488281 336.761719 C 383.140625 335.621094 385.195312 336 386.15625 335.371094 C 386.007812 335.464844 383 334.742188 382.582031 334.726562 C 381.222656 334.671875 379.859375 334.773438 378.507812 334.960938 C 378.671875 333.859375 380.339844 334.703125 378.507812 334.960938 Z M 197.320312 330.828125 C 198.007812 330.703125 198.605469 330.515625 198.808594 329.957031 C 197.929688 329.933594 197.15625 329.972656 197.320312 330.828125 Z M 210.085938 334.324219 C 213.957031 334.167969 214.46875 331.152344 216.011719 329.011719 C 213.019531 329.910156 211.402344 331.980469 210.085938 334.324219 Z M 229.6875 331.6875 C 232.402344 331.050781 234.085938 330.515625 233.511719 327.515625 C 230.828125 327.699219 230.78125 330.144531 229.6875 331.6875 Z M 215.523438 333.648438 C 217.183594 331.804688 218.757812 329.863281 220.230469 327.824219 C 217.5625 328.539062 215.136719 332.082031 215.523438 333.648438 Z M 202.128906 329.617188 C 203.492188 329.632812 205.089844 328.453125 204.796875 327.933594 C 204.332031 328.855469 202.019531 328.195312 202.128906 329.617188 Z M 221.410156 327.257812 C 219.230469 330.253906 217.199219 333.386719 214.667969 336.109375 C 214.429688 335.292969 215.832031 334.527344 215.21875 333.929688 C 211.328125 335.527344 211.039062 340.28125 208.789062 343.3125 C 208.054688 341.996094 209.394531 340.484375 209.605469 339.21875 C 206.003906 338.976562 203.6875 340.777344 203.996094 344.507812 C 212.039062 344.121094 220.246094 345.308594 227.019531 340.179688 C 229.902344 337.992188 233 338.226562 235.882812 336.457031 C 239.519531 334.238281 243.382812 332.371094 246.875 329.917969 C 240.578125 330.863281 235.574219 335.039062 229.5 336.574219 C 232.609375 333.617188 237.09375 332.804688 240.53125 330.328125 C 236.90625 331.230469 233.6875 333.246094 230.050781 334.121094 C 230.53125 332.820312 232.433594 333.089844 233.011719 331.882812 C 230.445312 332.136719 229.089844 333.875 227.359375 335.542969 C 227.601562 334.527344 226.0625 334.828125 225.519531 334.496094 C 227.894531 333.527344 228.5 330.855469 229.3125 328.699219 C 225.917969 329.390625 224.984375 332.59375 223.722656 335.355469 C 224.847656 336.457031 223.28125 338.34375 222.699219 336.253906 C 222.125 334.175781 223.519531 332.136719 224.503906 330.445312 C 220.496094 331.988281 221.78125 338.015625 217.773438 339.566406 C 219.601562 335.355469 220.566406 330.617188 223.828125 327.195312 C 222.96875 327.382812 222.277344 327.265625 221.410156 327.257812 C 219.222656 330.261719 222.796875 327.273438 221.410156 327.257812 Z M 241.445312 330.59375 C 243.253906 330.507812 245.371094 328.445312 247.160156 329.183594 C 248.144531 329.59375 252.15625 327.667969 253.140625 326.507812 C 249.8125 326.964844 243.429688 327.382812 241.445312 330.59375 C 243.742188 330.484375 242.996094 328.082031 241.445312 330.59375 Z M 205.394531 327.375 C 205.484375 328.632812 208.535156 328.902344 208.417969 327.304688 C 206.773438 327.675781 207.214844 326.972656 205.394531 327.375 Z M 234.464844 329.390625 C 235.8125 329.570312 236.535156 328.65625 237.769531 328.5 C 236.960938 328.203125 237.402344 326.925781 236.992188 326.359375 C 236.03125 325.03125 234.550781 328.855469 234.464844 329.390625 C 236.171875 329.609375 234.703125 327.917969 234.464844 329.390625 Z M 224.785156 329.089844 C 225.972656 328.320312 227.878906 328.1875 227.746094 326.304688 C 225.527344 326.171875 224.257812 328.460938 224.785156 329.089844 Z M 341.355469 323.339844 C 340.773438 323.234375 340.570312 322.765625 339.835938 322.835938 C 339.757812 323.691406 341.261719 324.25 341.355469 323.339844 Z M 269.476562 326.941406 C 270.878906 326.453125 271.703125 325.480469 272.457031 324.433594 C 271.097656 324.945312 270.175781 325.847656 269.476562 326.941406 Z M 332 323.828125 C 334.40625 325.414062 335.578125 328.3125 338.46875 329.214844 C 339.851562 329.640625 341.300781 329.777344 342.675781 330.230469 C 343.921875 330.632812 344.371094 331.75 345.488281 332.191406 C 348.515625 333.425781 351.902344 333.167969 354.914062 334.425781 C 355.976562 334.867188 356.628906 336.234375 357.636719 336.867188 C 359.179688 337.847656 360.847656 338.589844 362.507812 339.34375 C 364.996094 340.460938 367.71875 341.5625 369.644531 343.578125 C 372.707031 344.121094 375.59375 345.625 378.382812 346.9375 C 380.402344 347.882812 383.410156 348.464844 385.652344 348.851562 C 387.40625 349.15625 393.371094 351.101562 394.570312 349.246094 C 392.269531 347.820312 389.515625 347.535156 386.941406 346.882812 C 385.605469 346.539062 384.683594 346.152344 383.636719 345.285156 C 382.566406 344.398438 381.152344 344.933594 379.953125 344.429688 C 379.128906 344.089844 378.453125 343.335938 377.789062 342.777344 C 376.34375 341.5625 375.066406 341.785156 373.511719 341.042969 C 370.976562 339.832031 370.109375 337.148438 367.152344 336.644531 C 364.625 336.21875 362.53125 334.394531 360.15625 333.464844 C 358.605469 332.851562 356.953125 332.457031 355.269531 332.464844 C 353.386719 332.46875 352.011719 331.726562 350.261719 330.996094 C 344.488281 328.59375 338.664062 326.132812 333.769531 322.164062 C 334.054688 323.464844 331.824219 322.628906 332 323.828125 C 334.203125 325.28125 331.824219 322.628906 332 323.828125 Z M 239.496094 324.660156 C 238.769531 325.722656 238.414062 326.996094 238.070312 328.210938 C 240.769531 328.375 241.769531 326.746094 241.910156 324.335938 C 241.035156 324.304688 240.390625 324.808594 239.496094 324.660156 C 238.816406 325.660156 240.636719 324.847656 239.496094 324.660156 Z M 325.609375 322.621094 C 326.371094 328.082031 327.90625 333.804688 331.652344 338.015625 C 333.839844 340.484375 334.933594 344.40625 335.894531 347.527344 C 336.847656 350.644531 338.460938 353.492188 340.199219 356.238281 C 341.664062 358.546875 343.234375 360.804688 344.519531 363.226562 C 344.96875 364.070312 344.582031 365.226562 345.046875 365.738281 C 345.511719 366.265625 346.699219 367.179688 346.335938 368.035156 C 350.808594 373.144531 352.4375 379.917969 355.6875 385.6875 C 356.953125 387.9375 357.464844 390.132812 358.402344 392.449219 C 358.839844 393.542969 360 394.234375 360.289062 395.390625 C 360.558594 396.5 360.242188 397.183594 361.058594 398.460938 C 362.730469 401.097656 363.476562 403.226562 364.003906 406.296875 C 364.222656 407.597656 364.113281 409.289062 364.578125 410.507812 C 364.941406 411.515625 365.882812 412.191406 366.238281 413.214844 C 366.609375 414.300781 366.066406 414.804688 366.640625 415.851562 C 367.285156 417.015625 367.8125 418.257812 368.277344 419.503906 C 369.300781 422.289062 370.015625 425.207031 370.457031 428.136719 C 370.660156 429.503906 370.804688 430.867188 370.84375 432.25 C 370.875 433.453125 371.472656 433.652344 371.976562 434.714844 C 372.636719 436.097656 373.367188 439.035156 371.3125 439.671875 C 371.015625 437.554688 370.511719 435.476562 369.890625 433.429688 C 369.636719 432.605469 369.371094 431.785156 369.09375 430.960938 C 368.433594 428.992188 368.726562 429.890625 367.300781 430.148438 C 365.339844 430.503906 363.230469 421.460938 362.800781 419.917969 C 361.691406 415.898438 360.785156 411.828125 359.550781 407.847656 C 358.976562 405.992188 358.953125 404.496094 356.976562 404.03125 C 355.914062 403.777344 355.9375 403.292969 355.914062 402.292969 C 355.882812 400.90625 355.316406 400.011719 354.757812 398.75 C 352.882812 394.539062 351.300781 390.210938 349.808594 385.84375 C 348.25 381.242188 347.304688 375.929688 344.558594 371.925781 C 342.316406 368.667969 341.136719 364.976562 339.160156 361.640625 C 337.066406 358.121094 336.296875 353.800781 333.527344 350.691406 C 335.917969 356.902344 338.089844 362.992188 340.84375 369.105469 C 342.316406 372.371094 343.324219 375.695312 344.332031 379.125 C 344.824219 380.785156 345.375 382.429688 346.132812 383.988281 C 346.367188 384.460938 348.304688 386.222656 348.289062 386.449219 C 345.078125 386.804688 344.164062 381.523438 343.433594 379.335938 C 342.238281 375.765625 341.253906 371.703125 338.796875 368.746094 C 338.789062 369.398438 337.933594 370.414062 338.476562 370.894531 C 339.019531 371.375 340.183594 371.222656 340.097656 372.253906 C 338.136719 374.625 340.519531 377.140625 339.65625 379.589844 C 339.417969 378.304688 338.988281 376.890625 337.871094 376.078125 C 337.050781 375.472656 334.644531 374.605469 335.132812 376.503906 C 335.3125 377.195312 336.414062 378.613281 335.421875 379.148438 C 333.996094 378.582031 334.5625 376.269531 332.925781 375.960938 C 333.125 379.15625 331.433594 372.417969 331.015625 371.917969 C 331.9375 375.914062 330.394531 379.878906 330.992188 383.863281 C 331.273438 385.726562 332.171875 387.410156 332.488281 389.261719 C 332.621094 389.984375 332.621094 390.707031 332.472656 391.425781 C 332.085938 393.234375 332.769531 392.714844 333.375 394.359375 C 333.636719 395.136719 333.550781 395.878906 333.109375 396.585938 C 333.683594 397.160156 334.085938 397.886719 334.40625 398.632812 C 335.019531 400.097656 335.335938 401.679688 335.539062 403.242188 C 335.714844 404.613281 335.808594 406 335.785156 407.382812 C 336.964844 409.46875 337.5 411.875 337.925781 414.207031 C 338.671875 418.21875 340.097656 422.707031 340.074219 426.78125 C 340.042969 431.335938 339.492188 435.847656 339.601562 440.417969 C 339.703125 445.046875 340.136719 449.695312 341.121094 454.222656 C 341.566406 456.230469 342.140625 457.90625 343.132812 459.699219 C 343.992188 461.257812 345.417969 463.421875 344.714844 465.292969 C 341.316406 460.195312 339.882812 454.058594 339.144531 448.058594 C 338.324219 441.394531 339.75 434.714844 338.820312 428.105469 C 337.902344 421.621094 335.011719 415.636719 333.628906 409.257812 C 332.0625 402.046875 331.433594 394.644531 328.671875 387.726562 C 329.992188 392.566406 328.214844 397.617188 329.582031 402.488281 C 330.203125 404.699219 331.039062 406.957031 330.785156 409.28125 C 330.652344 410.507812 330.0625 411.230469 330.308594 412.4375 C 330.589844 413.796875 330.785156 415.175781 330.90625 416.558594 C 331.085938 418.582031 331.1875 420.730469 330.699219 422.714844 C 331.769531 425.160156 332.015625 427.820312 332.289062 430.441406 C 332.527344 432.792969 331.511719 434.800781 331.652344 437.074219 C 331.800781 439.679688 333.28125 441.914062 333.367188 444.644531 C 333.421875 446.382812 335.035156 456.714844 333.636719 457.402344 C 335.515625 462.738281 336.019531 468.378906 336.066406 474.003906 C 336.113281 479.238281 336.664062 484.226562 337.640625 489.359375 C 338.671875 494.773438 339.726562 500.382812 338.757812 505.882812 C 337.835938 511.117188 340.121094 516.824219 340.984375 522.117188 C 341.433594 524.882812 341.789062 527.675781 341.976562 530.46875 C 342.183594 533.65625 342.734375 536.363281 343.371094 539.480469 C 344.441406 544.757812 343.820312 550.070312 344.339844 555.390625 C 344.882812 560.851562 345.09375 566.328125 345.605469 571.789062 C 346.589844 582.375 347.398438 592.738281 347.824219 603.457031 C 348.035156 608.667969 349.25 613.8125 349.59375 619.03125 C 349.941406 624.359375 350.097656 630.199219 351.851562 635.289062 C 352.246094 636.4375 352.726562 637.5625 353.339844 638.609375 C 355.300781 634.25 355.511719 629.300781 357.636719 625.003906 C 358.417969 623.414062 359.746094 622.171875 359.550781 620.265625 C 361.613281 618.777344 362.800781 616.558594 363.664062 614.214844 C 365.617188 608.910156 367.214844 603.496094 369.457031 598.300781 C 370.417969 596.066406 371.3125 593.535156 372.984375 591.761719 C 374.769531 589.867188 376.160156 587.640625 377.351562 585.34375 C 379.625 580.964844 381.238281 576.253906 383.789062 572.019531 C 386.195312 568.042969 386.605469 562.84375 388.894531 558.71875 C 391.546875 553.917969 392.445312 548.425781 394.058594 543.226562 C 394.796875 540.847656 395.679688 538.488281 396.875 536.292969 C 398.769531 536.464844 397.371094 534.96875 398.976562 535.433594 C 397.691406 524.660156 395.144531 514.078125 392.261719 503.640625 C 390.75 498.148438 389.128906 492.679688 387.515625 487.21875 C 386.023438 482.167969 385.117188 476.257812 382.78125 471.558594 C 380.726562 467.410156 380.386719 463.019531 379.121094 458.652344 C 377.601562 453.410156 376.414062 448.074219 375.273438 442.742188 C 373.039062 432.359375 370.109375 422.296875 367.378906 412.050781 C 366.066406 407.140625 364.238281 402.699219 362.328125 398.011719 C 360.273438 392.964844 359.203125 387.527344 357.738281 382.296875 C 354.882812 372.121094 349.910156 362.503906 346.007812 352.683594 C 344.210938 348.152344 343.226562 343.902344 340.496094 339.785156 C 338.160156 336.261719 337.097656 331.308594 334.101562 328.328125 C 332.785156 327.011719 331.378906 328.40625 330.226562 327.414062 C 328.742188 326.132812 331.753906 326.933594 331.652344 327.042969 C 332.28125 326.3125 329.09375 323.457031 328.503906 323.015625 C 327.640625 322.378906 326.648438 321.976562 325.59375 321.804688 C 325.5625 322.101562 325.089844 322.449219 325.609375 322.621094 C 326.53125 329.257812 325.074219 322.449219 325.609375 322.621094 Z M 216.554688 326.289062 C 219.449219 325.597656 221.9375 325.652344 223.457031 324.21875 C 220.285156 324.683594 218.988281 325.15625 216.554688 326.289062 Z M 341.613281 321.433594 C 340.496094 321.8125 339.492188 320.671875 338.898438 321.488281 C 340.019531 321.292969 341.097656 322.738281 341.613281 321.433594 Z M 242.257812 326.507812 C 243.902344 326.15625 249.179688 325.707031 248.835938 323.085938 C 247.433594 322.921875 248.070312 324.832031 246.757812 324.761719 C 246.355469 323.371094 247.074219 322.464844 244.664062 323.417969 C 243.328125 323.953125 242.710938 325.234375 242.257812 326.507812 C 244.941406 325.949219 242.910156 324.652344 242.257812 326.507812 Z M 253.746094 326.234375 C 255.964844 325.457031 256.988281 323.683594 258.796875 322.582031 C 256.183594 323 254.792969 324.464844 253.746094 326.234375 Z M 223.457031 323.945312 C 223.992188 323.816406 225.980469 325.023438 226.164062 323.355469 C 225.382812 323.714844 223.976562 323.046875 223.457031 323.945312 C 224.273438 323.746094 223.984375 323.03125 223.457031 323.945312 Z M 228.886719 323.550781 C 229.847656 323.488281 231.207031 323.769531 230.972656 322.691406 C 230.183594 322.890625 229.453125 323.15625 228.886719 323.550781 Z M 333.722656 320.527344 C 335.011719 320.625 336.515625 321.960938 337.964844 320.984375 C 336.726562 320.84375 334.382812 319.441406 333.722656 320.527344 Z M 315.636719 322.589844 C 317.226562 332.464844 322.242188 341.429688 323.65625 351.34375 C 324.285156 355.769531 326.261719 359.507812 326.363281 364.1875 C 326.457031 368.707031 326.019531 373.640625 328.433594 377.691406 C 325.796875 368.941406 330.503906 359.867188 328.589844 351.046875 C 328.09375 348.78125 327.222656 346.984375 326.921875 344.679688 C 326.59375 342.175781 325.890625 339.730469 325.160156 337.3125 C 324.421875 334.851562 320.453125 325.683594 323.523438 323.761719 C 323.3125 326.941406 325.082031 330.429688 326.464844 333.199219 C 326.160156 330.097656 325.355469 327.042969 324.648438 324.023438 C 324.082031 321.605469 324.261719 321.9375 322.089844 321.308594 C 320.597656 320.875 319.296875 320.105469 317.699219 320.089844 C 318.96875 322.148438 316.238281 321.542969 315.636719 322.589844 C 317.308594 332.976562 316.007812 321.953125 315.636719 322.589844 Z M 265.628906 330.285156 C 263.84375 331.339844 262.882812 333.285156 261.222656 334.488281 C 259.625 335.636719 257.585938 335.253906 255.949219 336.371094 C 254.628906 337.28125 253.542969 338.566406 251.886719 338.863281 C 250.613281 339.078125 250.316406 338.582031 249.449219 339.4375 C 248.339844 340.523438 247.65625 340.027344 246.898438 341.617188 C 244.695312 346.238281 242.28125 350.746094 240.234375 355.429688 C 239.195312 357.8125 238.25 360.222656 237.472656 362.707031 C 236.683594 365.234375 236.566406 368.777344 235.175781 370.820312 C 234.78125 371.398438 234.757812 372.316406 233.976562 372.585938 C 233.945312 373.394531 234.78125 373.601562 234.621094 374.472656 C 233.167969 376.292969 233.105469 378.761719 232.105469 380.808594 C 231.105469 382.847656 231.183594 385.277344 230.578125 387.519531 C 229.863281 390.140625 228.886719 392.683594 228.144531 395.289062 C 227.800781 396.476562 227.5 397.6875 227.28125 398.90625 C 226.894531 401 226.800781 399.484375 226.242188 400.804688 C 225.421875 402.75 224.90625 404.855469 224.359375 407.054688 C 222.929688 412.742188 221.09375 418.304688 219.097656 423.816406 C 217.679688 427.765625 216.949219 432.039062 215.242188 435.878906 C 214.507812 437.539062 214.1875 438.765625 214.179688 440.59375 C 214.171875 441.472656 214.082031 442.394531 213.46875 443.085938 C 212.398438 444.296875 212.429688 445.257812 212.132812 446.917969 C 211.769531 449.003906 210.21875 450.617188 210.039062 452.515625 C 209.8125 454.96875 209.324219 457.394531 208.699219 459.769531 C 208.078125 462.128906 207.308594 464.445312 206.410156 466.710938 C 205.96875 467.835938 206.167969 468.648438 205.890625 469.789062 C 205.554688 471.125 204.617188 471.636719 204.375 473 C 203.46875 478.113281 202.335938 483.1875 201.066406 488.210938 C 200.453125 490.625 199.535156 493.058594 199.15625 495.511719 C 198.746094 498.15625 197.519531 499.824219 197.226562 502.359375 C 196.945312 504.871094 196.324219 507.347656 195.558594 509.75 C 195.199219 510.875 194.796875 512 194.363281 513.109375 C 194.75 514.109375 194.566406 515.101562 194.144531 516.058594 C 191.921875 521.167969 192.648438 526.449219 191.972656 531.878906 C 191.6875 534.230469 190.359375 536.015625 190.910156 538.394531 C 191.5 540.917969 192.953125 543.121094 193.953125 545.476562 C 195.09375 548.183594 195.835938 550.730469 197.351562 553.320312 C 198.832031 555.847656 200.492188 558.414062 201.242188 561.277344 C 200.132812 560.371094 199.785156 558.765625 198.449219 558.089844 C 199.5 561.058594 201.707031 563.277344 203.910156 565.425781 C 206.417969 567.878906 208.078125 570.570312 210.984375 572.484375 C 213.453125 574.105469 215.746094 576.09375 216.917969 578.867188 C 217.773438 580.878906 217.980469 582.375 219.292969 584.214844 C 220.566406 586.003906 221.828125 587.796875 223.0625 589.613281 C 225.3125 592.914062 227.4375 596.3125 229.273438 599.867188 C 231.152344 603.496094 233.199219 606.785156 235.238281 610.3125 C 236.953125 613.269531 237.566406 617.746094 239.714844 620.164062 C 242.414062 623.195312 243.703125 627.152344 245.8125 630.574219 C 246.679688 624.050781 245.664062 617.511719 246.261719 610.996094 C 246.585938 607.367188 246.71875 603.726562 246.828125 600.089844 C 246.882812 598.152344 246.929688 596.210938 246.992188 594.28125 C 247.058594 592.15625 248.503906 593.0625 248.535156 591.9375 C 246.695312 591.859375 248.117188 586.980469 248.261719 585.625 C 248.566406 582.777344 248.859375 579.929688 249.15625 577.078125 C 249.773438 571.042969 250.425781 565.015625 251.3125 559.011719 C 253.078125 546.988281 256.445312 535.347656 257.765625 523.246094 C 260.214844 500.785156 262.472656 478.253906 265.847656 455.914062 C 267.523438 444.890625 269.421875 433.421875 269.933594 422.28125 C 270.46875 410.539062 272.59375 399.222656 274.199219 387.578125 C 274.984375 381.886719 275.734375 376.195312 276.605469 370.515625 C 277.550781 364.335938 276.851562 358.253906 277.109375 352.046875 C 277.320312 347.054688 278.351562 342.328125 278.289062 337.273438 C 278.257812 334.78125 278.257812 332.269531 278.652344 329.800781 C 279.054688 327.320312 280.714844 325.015625 280.730469 322.496094 C 280.738281 321.765625 280.566406 321.078125 280.210938 320.441406 C 279.445312 323.339844 278.335938 326.132812 277.558594 329.058594 C 277.289062 330.082031 276.9375 330.648438 276.03125 331.230469 C 274.425781 332.253906 274.960938 333.929688 275.433594 335.488281 C 272.378906 335.710938 271.175781 344.71875 270.515625 347.292969 C 269.273438 352.117188 267.792969 356.773438 267.179688 361.726562 C 265.832031 372.609375 262.984375 383.273438 261.695312 394.195312 C 260.175781 392.582031 262.386719 389.589844 260.355469 388.527344 C 260.207031 389.332031 261.160156 390.519531 260.113281 390.976562 C 259.042969 390.550781 259.300781 389.015625 258.238281 388.582031 C 257.6875 392.0625 260.640625 395.5 259.386719 398.867188 C 258.492188 395.761719 256.996094 392.636719 257.175781 389.332031 C 257.269531 387.542969 258.339844 386.507812 257.65625 384.910156 C 257.128906 383.671875 257.121094 382.320312 257.375 381.019531 C 257.894531 378.390625 259.402344 375.9375 259.433594 373.207031 C 259.457031 371.238281 256.585938 368.816406 258.945312 367.382812 C 259.402344 368.082031 259.042969 369.671875 260.214844 369.785156 C 261.175781 367.628906 257.617188 364.164062 260.640625 362.722656 C 260.75 363.339844 260.269531 365.070312 261.316406 365.148438 C 262.140625 363.015625 262.644531 359.710938 260.535156 358.113281 C 259.386719 359.515625 259.324219 361.371094 258.851562 363.039062 C 258.191406 365.351562 257.089844 367.492188 256.328125 369.761719 C 255.863281 371.136719 255.25 373.066406 256.066406 374.425781 C 257.035156 376.03125 256.609375 378.425781 255.113281 376.023438 C 251.644531 370.445312 259.363281 363.699219 258.726562 357.878906 C 258.347656 358.804688 258.269531 360.097656 257.277344 360.625 C 258.277344 356.601562 262.078125 353.597656 261.238281 349.132812 C 257.191406 354.847656 255.4375 361.859375 253.582031 368.515625 C 253.484375 368.886719 254.171875 374.671875 252.117188 371.875 C 251.195312 370.625 250.148438 373.253906 249.84375 373.757812 C 248.78125 375.542969 247.75 377.386719 246.214844 378.816406 C 248.84375 373.53125 251.777344 368.390625 253.933594 362.890625 C 254.917969 360.386719 255.265625 356.902344 256.792969 354.761719 C 257.964844 353.125 259.6875 350.480469 258.804688 348.371094 C 257.011719 350.652344 255.988281 353.351562 255.050781 356.066406 C 253.09375 358.632812 251.613281 361.558594 250.519531 364.582031 C 250.308594 365.164062 249.78125 366.242188 248.9375 366.257812 C 248.261719 367.902344 247.542969 369.539062 246.8125 371.160156 C 245.214844 374.695312 243.601562 378.21875 242.351562 381.894531 C 241.714844 377.859375 244.355469 373.011719 246.160156 369.578125 C 248.386719 365.328125 251.039062 361.277344 252.910156 356.839844 C 255.980469 349.535156 263.203125 342.144531 263.300781 333.867188 C 264.125 333.648438 263.09375 335.164062 263.921875 334.945312 C 263.929688 334.039062 265.605469 333.394531 264.464844 332.484375 C 264.480469 332.976562 264.296875 333.339844 263.890625 333.585938 C 263.730469 332.261719 266.242188 331.429688 265.628906 330.285156 C 263.503906 331.53125 266.265625 331.46875 265.628906 330.285156 Z M 233.089844 322.636719 C 234.441406 322.371094 235.804688 322.117188 235.765625 320.679688 C 234.859375 321.308594 232.953125 321.101562 233.089844 322.636719 Z M 253.925781 321.324219 C 255.273438 320.703125 258.460938 320.253906 258.421875 319.332031 C 257.957031 319.820312 253.445312 320.082031 253.925781 321.324219 Z M 325.230469 319.105469 C 327.578125 318.453125 329.75 320.519531 331.898438 319.757812 C 329.433594 318.898438 326.632812 317.8125 323.988281 317.78125 C 324.429688 318.191406 324.851562 318.632812 325.230469 319.105469 C 328.417969 318.222656 324.859375 318.617188 325.230469 319.105469 Z M 237.007812 321.726562 C 239.023438 321.875 239.484375 320.480469 240.878906 319.464844 C 240.652344 319.796875 240.5625 320.167969 240.605469 320.574219 C 241.964844 320.347656 242.40625 319.191406 243.277344 318.324219 C 241.003906 318.773438 238.117188 319.433594 237.007812 321.726562 C 239.375 321.898438 238.007812 319.664062 237.007812 321.726562 Z M 317.347656 317.941406 C 317.550781 316.421875 316.707031 315.957031 315.472656 315.800781 C 315.960938 316.632812 316.363281 317.5625 317.347656 317.941406 Z M 243.933594 320.207031 C 245.050781 319.316406 246.363281 318.578125 246.875 317.152344 C 244.8125 317.027344 243.019531 319.523438 243.933594 320.207031 Z M 247.804688 318.492188 C 248.628906 318.851562 249.851562 317.6875 249.882812 316.539062 C 248.703125 316.765625 248.078125 317.484375 247.804688 318.492188 Z M 251.707031 317.035156 C 253.304688 317.207031 253.234375 315.863281 253.777344 314.816406 C 252.382812 314.863281 252.15625 315.664062 251.707031 317.035156 C 253.460938 317.214844 251.953125 316.273438 251.707031 317.035156 Z M 257.726562 315.808594 C 261.175781 314.460938 257.554688 314.011719 257.726562 315.808594 C 258.429688 315.53125 257.664062 315.136719 257.726562 315.808594 Z M 283.097656 314.933594 C 283.328125 314.636719 283.632812 314.539062 284.011719 314.652344 C 283.949219 313.941406 283.445312 313.605469 282.761719 313.597656 C 282.886719 313.871094 282.453125 315.003906 283.097656 314.933594 C 283.152344 314.632812 282.445312 315.003906 283.097656 314.933594 Z M 260.789062 317.097656 C 261.109375 318.285156 259.90625 318.9375 259.011719 319.324219 C 261.765625 319.136719 263.945312 317.925781 266.351562 316.75 C 267.847656 316.011719 272.457031 315.839844 272.796875 313.824219 C 268.476562 313.460938 265.015625 316.800781 260.789062 317.097656 C 261.078125 318.175781 265.457031 316.773438 260.789062 317.097656 Z M 320.25 313.242188 C 321.5 313.4375 321.800781 312.792969 322.964844 312.910156 C 322.863281 311.566406 319.816406 311.457031 320.25 313.242188 Z M 260.710938 314.109375 C 262.953125 315.429688 265.589844 314.886719 267.34375 313.414062 C 265.976562 313.421875 262.386719 313.03125 260.710938 314.109375 Z M 319.878906 310.273438 C 320.421875 310.332031 320.039062 310.921875 320.949219 311.132812 C 321.554688 311.273438 322.421875 311.777344 323.066406 311.488281 C 324.316406 310.9375 321.171875 308.691406 319.878906 310.273438 C 320.226562 310.3125 320.667969 309.308594 319.878906 310.273438 Z M 266.039062 309.636719 C 270.113281 308.726562 273.472656 310.675781 278.433594 309.347656 C 276.425781 307.199219 268.195312 307.882812 266.039062 309.636719 Z M 320.078125 305.914062 C 320.582031 305.898438 321.09375 305.890625 321.585938 305.875 C 321.816406 304.75 320.054688 305.089844 320.078125 305.914062 Z M 320.832031 299.652344 C 322.585938 299.558594 324.789062 299.839844 325.347656 298.738281 C 323.492188 298.746094 321.722656 298.816406 320.832031 299.652344 Z M 319.335938 299.964844 C 319.832031 299.972656 320.234375 299.785156 320.53125 299.390625 C 319.808594 299.265625 320.296875 298.335938 319.304688 298.605469 C 319.421875 299.140625 318.855469 299.550781 319.335938 299.964844 C 319.902344 299.902344 318.746094 299.460938 319.335938 299.964844 Z M 323.265625 300.140625 C 321.816406 300.3125 319.558594 299.644531 318.753906 301.328125 C 320.769531 302.210938 324.222656 300.863281 326.371094 300.570312 C 328.757812 300.25 331.597656 299.582031 333.507812 297.992188 C 330.078125 298.667969 326.734375 299.722656 323.265625 300.140625 C 321.675781 300.328125 326.867188 299.714844 323.265625 300.140625 Z M 326.207031 296 C 324.695312 296 322.351562 294.75 320.996094 295.84375 C 318.761719 297.628906 323.515625 296.597656 323.808594 297.402344 C 323.414062 297.503906 322.648438 297.210938 322.328125 297.535156 C 321.761719 298.132812 326.082031 297.582031 326.53125 297.519531 C 328.796875 297.25 331.054688 296.921875 333.296875 296.511719 C 336.933594 295.828125 340.578125 294.921875 343.96875 293.402344 C 337.972656 293.238281 332.242188 295.984375 326.207031 296 C 324.5 296 333.007812 295.984375 326.207031 296 Z M 279.589844 294.105469 C 279.375 295.148438 281.019531 294.417969 281.714844 294.605469 C 281.832031 293.378906 280.289062 293.898438 279.589844 294.105469 Z M 304.984375 293.789062 C 305.414062 292.417969 306.839844 291.828125 306.714844 290.214844 C 305.917969 290.230469 303.644531 293.113281 304.984375 293.789062 C 305.40625 292.457031 303.722656 293.152344 304.984375 293.789062 Z M 277.898438 286.824219 C 278.296875 286.730469 279.730469 287.132812 279.40625 286.242188 C 278.613281 286.257812 277.890625 285.886719 277.898438 286.824219 C 278.472656 286.683594 277.898438 286.636719 277.898438 286.824219 Z M 279.964844 284.589844 C 279.566406 284.34375 278.855469 284.367188 278.441406 284.09375 C 278.007812 285.273438 279.855469 285.527344 279.964844 284.589844 Z M 299.324219 284.953125 C 297.871094 285.542969 296.34375 285.226562 294.972656 284.605469 C 293.398438 283.898438 292.730469 283.953125 291.023438 283.832031 C 288.070312 283.613281 285.339844 282.464844 282.34375 283.1875 C 282.671875 284.328125 283.074219 285.542969 283.949219 286.40625 C 283.089844 287.53125 282.964844 287.34375 283.40625 288.964844 C 284.324219 292.308594 284.867188 295.742188 285.339844 299.164062 C 285.515625 300.421875 285.679688 301.675781 285.84375 302.925781 C 285.921875 303.75 287.285156 303.230469 287.082031 304.261719 C 286.648438 306.585938 287.757812 314.042969 284.894531 314.082031 C 285.429688 316.601562 282.058594 315.777344 281.667969 317.6875 C 283.980469 318.59375 286.246094 318.183594 288.308594 316.894531 C 289.292969 316.273438 290.203125 315.53125 291.179688 314.886719 C 292.660156 313.894531 292.023438 314.980469 292.195312 315.808594 C 292.988281 315.871094 293.878906 314.265625 294.59375 314.933594 C 294.578125 315.792969 293.492188 315.769531 293.421875 316.601562 C 294.53125 317.027344 300.363281 315.011719 297.980469 317.300781 C 301.914062 317.453125 305.472656 319.363281 309.375 319.609375 C 310.53125 319.6875 311.703125 319.609375 312.84375 319.394531 C 312.796875 318.316406 312.570312 317.261719 312.199219 316.253906 C 311.710938 314.933594 312.058594 312.414062 311.972656 310.792969 C 311.875 308.734375 313.464844 307.214844 313.710938 305.246094 C 313.976562 303.222656 313.394531 301.132812 313.84375 299.140625 C 314.332031 296.976562 315.828125 294.984375 316.875 293.058594 C 317.472656 291.957031 318.03125 290.835938 318.480469 289.664062 C 319.273438 289.242188 320.007812 288.699219 320.558594 287.988281 C 317.511719 287.203125 314.574219 289.328125 311.523438 289.367188 C 309.34375 289.390625 309.554688 292.515625 309.304688 294.488281 C 309.019531 296.761719 308.910156 299.0625 308.484375 301.3125 C 306.761719 298.542969 308.429688 295.03125 307.359375 292.097656 C 306.4375 293.035156 302.84375 300.085938 302.789062 294.984375 C 302.773438 293.441406 303.386719 291.890625 304.164062 290.578125 C 304.589844 289.847656 305.109375 289.136719 305.769531 288.59375 C 306.390625 288.453125 307.621094 289.265625 307.871094 288.28125 C 304.984375 287.25 302.316406 285.691406 299.324219 284.953125 C 296.964844 285.917969 302.519531 285.738281 299.324219 284.953125 Z M 338.972656 299.226562 C 338.238281 299.980469 332.691406 301.445312 332.871094 302.003906 C 333.636719 304.46875 329.0625 303.839844 327.292969 304.121094 C 331.722656 305.9375 336.894531 304.539062 341.527344 304.828125 C 343.363281 304.933594 346.972656 305.011719 347.019531 307.183594 C 349.6875 308.03125 352.476562 308.464844 355.253906 308.71875 C 360.769531 309.226562 366.308594 309.070312 371.824219 309.464844 C 373.886719 309.605469 384.496094 309.945312 384.9375 312.800781 C 374.242188 307.914062 362.273438 311.550781 351.136719 309.101562 C 345.683594 307.90625 340.75 306.292969 335.128906 306.898438 C 332.519531 307.183594 330.660156 305.625 328.007812 306.378906 C 325.347656 307.136719 322.21875 306.363281 319.480469 306.480469 C 325.167969 308.292969 331.644531 307.269531 337.097656 309.867188 C 334.644531 310.496094 331.125 308.78125 328.613281 308.804688 C 325.664062 308.828125 321.265625 306.253906 318.621094 308.402344 C 320.257812 308.835938 333.941406 308.828125 332.621094 312.140625 C 330.015625 310.25 326.632812 309.820312 323.5 309.90625 C 323.507812 311.367188 326.828125 312.800781 324.75 313.46875 C 323.671875 313.808594 318.976562 314.691406 322.460938 315.777344 C 328.90625 317.796875 334.988281 319.035156 341.632812 320.066406 C 344.480469 320.503906 346.769531 322.109375 349.554688 322.804688 C 352.960938 323.667969 356.449219 324.195312 359.917969 324.691406 C 366.71875 325.667969 373.03125 328.296875 379.820312 329.515625 C 386.273438 330.671875 393.113281 330.796875 399.441406 332.339844 C 406.027344 333.953125 412.441406 335.566406 419.136719 336.769531 C 423.261719 337.511719 451.242188 338.738281 446.222656 346.65625 C 450.046875 346.316406 450.96875 342.980469 451.324219 339.699219 C 451.84375 334.9375 453.542969 330.074219 453.566406 325.296875 C 453.589844 320.363281 455.195312 315.6875 454.847656 310.722656 C 454.476562 305.46875 452.929688 300.367188 452.605469 295.125 C 452.296875 289.964844 453.429688 284.910156 454.621094 279.929688 C 455.085938 278.019531 454.996094 279.433594 456.097656 278.53125 C 456.359375 277.492188 456.664062 276.453125 456.941406 275.414062 C 457.65625 272.777344 458.144531 270.117188 458.011719 267.371094 C 457.839844 263.886719 452.9375 262.097656 449.960938 261.546875 C 445.898438 260.792969 441.667969 261.289062 437.628906 261.964844 C 433.617188 262.640625 429.664062 263.585938 425.667969 264.347656 C 423.851562 264.695312 422.03125 264.996094 420.183594 265.175781 C 419.355469 265.261719 418.523438 265.316406 417.6875 265.324219 C 416.863281 266.253906 415.59375 266.640625 414.414062 266.90625 C 410.015625 267.867188 405.820312 269.707031 401.34375 270.03125 C 398.832031 270.21875 396.8125 271.335938 394.480469 272.15625 C 393.441406 272.519531 392.339844 272.722656 391.246094 272.460938 C 389.910156 272.894531 389.226562 273.273438 387.746094 273.429688 C 383.394531 273.871094 379.695312 276.269531 375.476562 276.246094 C 372.832031 276.238281 370.898438 277.453125 368.402344 277.894531 C 365.347656 278.417969 362.257812 278.492188 359.171875 278.570312 C 354.355469 278.695312 349.722656 279.632812 345.054688 280.804688 C 342.683594 281.394531 340.308594 282.046875 337.855469 282.214844 C 336.445312 282.316406 335.632812 282.070312 334.398438 282.753906 C 333.164062 283.441406 331.785156 283.835938 330.410156 284.171875 C 328.984375 284.519531 327.542969 284.808594 326.136719 285.242188 C 324.082031 285.871094 324.058594 287.066406 322.421875 288.195312 C 320.683594 289.398438 321.320312 289.089844 321.476562 290.859375 C 321.609375 292.339844 320.738281 293.90625 320.429688 295.324219 C 329.023438 294.835938 337.183594 293.050781 345.304688 291.484375 C 349.453125 290.6875 353.65625 291.84375 357.898438 290.910156 C 359.886719 290.476562 367.042969 287.132812 368.664062 289.019531 C 363.359375 290.011719 358.519531 292.332031 353.339844 293.8125 C 347.179688 295.574219 340.648438 295.261719 334.699219 297.96875 C 336.484375 298.226562 339.230469 296.164062 340.75 297.550781 C 339.269531 298.871094 337.074219 298.125 335.3125 298.496094 C 333.359375 298.910156 331.550781 299.824219 329.722656 300.585938 C 326.347656 301.996094 321.164062 301.585938 318.527344 304.332031 C 321.035156 304.789062 323.664062 304.019531 326.042969 303.320312 C 328 302.742188 330.085938 304.152344 332.09375 302.367188 C 331.441406 301.53125 330.164062 303.011719 329.675781 302.167969 C 332.878906 301.675781 335.691406 299.140625 338.972656 299.226562 C 337.65625 300.585938 335.933594 299.140625 338.972656 299.226562 Z M 136.585938 281.199219 C 141.621094 287.523438 146.367188 293.152344 147.035156 301.585938 C 147.375 305.84375 146.957031 310.15625 146.492188 314.382812 C 146.140625 317.554688 146.53125 324.628906 144.007812 326.917969 C 144.496094 331.53125 141.699219 335.683594 143.25 340.039062 C 144.257812 342.878906 146.4375 347.023438 149.359375 347.953125 C 151.066406 348.503906 151.097656 349.738281 152.789062 349.945312 C 155.078125 350.234375 157.289062 350.890625 159.414062 351.769531 C 161.375 352.566406 163.277344 353.523438 165.246094 354.320312 C 166.082031 354.652344 170.714844 355.453125 170.929688 355.738281 C 170.257812 354.847656 169.621094 354.839844 171.800781 354.761719 C 173.691406 354.699219 175.585938 354.609375 177.476562 354.484375 C 181.566406 354.21875 185.644531 353.816406 189.703125 353.21875 C 196.636719 352.210938 203.546875 350.667969 210.117188 348.167969 C 203.546875 347.953125 196.976562 348.613281 190.46875 349.449219 C 187.035156 349.890625 183.613281 350.394531 180.183594 350.882812 C 178.105469 351.1875 172.527344 352.949219 171.464844 349.890625 C 174.707031 350.714844 178.285156 350.519531 181.425781 349.378906 C 179.457031 349.425781 177.484375 349.582031 175.515625 349.433594 C 174.523438 349.355469 173.515625 349.210938 172.566406 348.882812 C 171.1875 348.402344 169.890625 348.90625 168.410156 348.796875 C 164.167969 348.472656 160.722656 345.394531 156.527344 345.082031 C 156.835938 343.925781 160.523438 343.578125 161.648438 343.058594 C 163.703125 342.113281 165.960938 341.667969 168.125 341.050781 C 170.09375 340.492188 172.25 339.800781 173.675781 338.257812 C 175.152344 336.667969 179.121094 336.179688 181.246094 335.277344 C 183.613281 334.277344 186.808594 333.585938 188.730469 331.972656 C 191.058594 330.027344 193.347656 330.019531 196.132812 329.035156 C 198.984375 328.027344 201.722656 326.894531 204.742188 326.445312 C 207.542969 326.03125 210.433594 325.941406 213.148438 325.0625 C 214.15625 324.738281 214.910156 324.242188 215.949219 324.15625 C 217.332031 324.039062 217.609375 324.371094 218.953125 323.828125 C 221.882812 322.652344 224.960938 321.890625 228.042969 321.222656 C 233.984375 319.945312 239.621094 318.625 245.261719 316.335938 C 248.078125 315.1875 250.953125 314.089844 253.972656 313.589844 C 256.617188 313.15625 258.867188 311.871094 261.65625 311.707031 C 267.578125 311.375 273.511719 312.863281 279.40625 311.769531 C 278.234375 313.917969 280.878906 313.863281 277.148438 314.421875 C 275.199219 314.707031 273.316406 315.320312 271.570312 316.230469 C 268.234375 317.980469 265.542969 320.710938 262.238281 322.503906 C 260.71875 323.332031 259.441406 324.359375 257.933594 325.117188 C 256.585938 325.808594 254.707031 326.28125 254.085938 327.839844 C 251.847656 328.507812 249.730469 329.546875 247.804688 330.878906 C 246.914062 331.5 246.058594 332.175781 245.238281 332.890625 C 243.742188 334.183594 243.601562 333.921875 241.824219 334.300781 C 240.109375 334.664062 238.894531 336.070312 237.582031 337.117188 C 235.921875 338.449219 233.882812 338.925781 231.851562 339.429688 C 229.632812 339.972656 227.421875 340.4375 226.257812 342.578125 C 225.289062 344.367188 221.03125 345.003906 219.089844 345.820312 C 214.839844 347.609375 210.667969 349.441406 206.089844 350.25 C 204.019531 350.613281 202.515625 352.117188 200.351562 352.535156 C 197.691406 353.0625 194.96875 353.085938 192.316406 353.714844 C 189.742188 354.328125 187.257812 355.265625 184.660156 355.808594 C 182.339844 356.289062 180.105469 356.035156 177.765625 356.105469 C 175.382812 356.183594 174.074219 357.609375 171.636719 357.375 C 169.15625 357.144531 166.820312 356.328125 164.554688 355.359375 C 162.695312 354.570312 160.863281 353.699219 158.925781 353.109375 C 156.890625 352.496094 155.070312 352.839844 153.074219 352.503906 C 150.695312 352.109375 148.5625 350.992188 146.335938 350.125 C 145.273438 349.707031 144.171875 349.355469 143.023438 349.210938 C 142.09375 348.160156 141.207031 347.058594 140.441406 345.882812 C 139.238281 344.050781 138.253906 341.980469 138.019531 339.769531 C 137.75 337.171875 139.214844 335.355469 139.535156 332.929688 C 140.347656 326.792969 141.355469 320.671875 142.132812 314.53125 C 143.3125 305.261719 144.519531 295.0625 137.375 287.824219 C 134.964844 285.382812 132.445312 282.714844 135.097656 279.402344 C 136.238281 277.964844 135.808594 276.097656 137.316406 274.785156 C 138.992188 273.3125 141.261719 272.375 143.125 271.15625 C 146.5625 268.898438 150.183594 266.480469 153.921875 264.757812 C 158.652344 262.578125 163.910156 263.679688 168.804688 264.671875 C 180.167969 266.984375 191.585938 268.914062 203.175781 269.527344 C 208.613281 269.8125 214.050781 270.03125 219.285156 271.667969 C 221.859375 272.476562 224.386719 273.429688 227.003906 274.105469 C 229.941406 274.847656 232.90625 274.769531 235.890625 275.113281 C 247.058594 276.390625 257.664062 281.191406 268.671875 283.355469 C 271.207031 283.851562 273.765625 284.234375 276.347656 284.410156 C 276.769531 282.316406 279.375 281.9375 281.019531 281.75 C 286.71875 281.125 291.839844 282.285156 297.375 283.179688 C 299.882812 283.582031 302.425781 283.769531 304.847656 284.605469 C 306.683594 285.234375 308.335938 286.3125 310.230469 286.800781 C 312.6875 287.453125 314.789062 286.808594 317.15625 286.148438 C 320.007812 285.351562 323.027344 285.605469 325.929688 284.839844 C 331.15625 283.441406 336.632812 280.183594 342.015625 279.867188 C 344.332031 279.726562 346.636719 279.230469 348.753906 278.253906 C 351.207031 277.113281 354.828125 277.539062 357.550781 277.253906 C 368.558594 276.136719 379.371094 273.699219 390.144531 271.265625 C 393.230469 270.566406 401.367188 270.289062 402.902344 267.03125 C 407.679688 267.632812 412.644531 264.71875 417.28125 263.941406 C 421.246094 263.285156 425.410156 263.269531 429.1875 261.761719 C 430.066406 261.414062 430.910156 260.972656 431.664062 260.40625 C 432.75 259.597656 433.449219 259.917969 434.78125 259.878906 C 437.691406 259.785156 440.558594 259.25 443.445312 258.941406 C 451.714844 258.0625 462.84375 261.792969 460.457031 271.933594 C 459.40625 276.367188 456.375 280.214844 455.941406 284.792969 C 455.367188 290.648438 456.304688 296.441406 456.484375 302.28125 C 456.648438 307.488281 457.507812 312.148438 456.5 317.390625 C 455.398438 323.085938 454.863281 328.714844 454.328125 334.488281 C 454.101562 336.9375 453.816406 339.390625 453.25 341.785156 C 452.589844 344.570312 452.046875 345.410156 449.449219 346.554688 C 444.765625 348.621094 439.226562 350.449219 434.105469 350.898438 C 431.585938 351.125 430.074219 351.550781 427.886719 352.730469 C 425.894531 353.800781 423.109375 353.808594 420.914062 353.949219 C 414.988281 354.3125 409.070312 354.375 403.167969 353.753906 C 400 353.421875 396.851562 352.933594 393.726562 352.335938 C 392.414062 352.085938 391.097656 351.816406 389.792969 351.527344 C 388.886719 350.550781 387.550781 349.9375 386.3125 349.738281 C 380.441406 348.773438 374.730469 346.84375 369.613281 343.789062 C 365.027344 341.050781 359.972656 339.894531 355.867188 336.355469 C 353.8125 334.589844 350.75 334.355469 348.21875 333.609375 C 344.675781 332.570312 341.167969 331.414062 337.585938 330.492188 C 338.011719 332.921875 339.082031 335.164062 340.410156 337.234375 C 341.566406 339.039062 343.582031 340.003906 344.605469 341.855469 C 346.453125 345.191406 347.621094 348.628906 349.722656 351.847656 C 352.175781 355.59375 353.578125 358.6875 354.527344 363.023438 C 354.75 364.046875 355.109375 365.046875 355.773438 365.871094 C 356.746094 367.078125 356.394531 367.171875 356.699219 368.625 C 356.882812 369.507812 357.394531 370.011719 358 370.640625 C 358.863281 371.53125 358.417969 372.820312 359.015625 373.953125 C 361.011719 377.699219 360.949219 382.671875 362.128906 386.859375 C 363.476562 391.636719 365.71875 395.691406 367.554688 400.238281 C 369.566406 405.179688 370.25 410.886719 371.589844 416.046875 C 373.125 421.980469 374.574219 427.929688 376.011719 433.886719 C 378.253906 443.117188 380.386719 451.828125 382.347656 460.910156 C 383.285156 465.269531 385.125 469.332031 386.566406 473.535156 C 387.257812 475.546875 387.839844 477.601562 388.132812 479.703125 C 388.421875 481.726562 388.289062 484.859375 390.257812 486.210938 C 390.351562 491.316406 392.75 496 393.960938 500.878906 C 394.566406 503.289062 394.75 505.78125 395.308594 508.199219 C 395.890625 510.683594 397.023438 512.96875 397.867188 515.367188 C 399.613281 520.355469 398.753906 525.929688 400.738281 530.816406 C 401.597656 532.933594 401.414062 534.230469 400.195312 536.125 C 399.0625 537.882812 399.582031 540.558594 397.25 539.265625 C 395.628906 543.753906 395.511719 548.59375 394.183594 553.15625 C 393.539062 555.367188 392.554688 557.476562 391.058594 559.246094 C 390.65625 561.625 389.917969 563.929688 388.964844 566.148438 C 385 575.347656 381.167969 584.65625 375.171875 592.769531 C 374.003906 594.359375 374.210938 596.1875 372.777344 597.792969 C 371.480469 599.238281 370.195312 600.371094 369.425781 602.191406 C 367.316406 607.234375 365.796875 612.554688 364.027344 617.722656 C 359.707031 619.34375 358.535156 626.773438 356.804688 630.660156 C 354.929688 634.871094 355.835938 640.089844 352.546875 643.789062 C 347.589844 621.203125 345.777344 597.832031 343.714844 574.851562 C 341.550781 550.753906 337.5 526.878906 335.808594 502.722656 C 334.171875 479.261719 330.472656 455.976562 328.765625 432.496094 C 327.929688 420.933594 327.105469 409.40625 326.066406 397.855469 C 325.050781 386.6875 323.304688 375.644531 322.203125 364.464844 C 321.179688 354.140625 316.261719 344.625 314.65625 334.363281 C 314.246094 331.710938 314 329.035156 314.015625 326.351562 C 314.015625 325.007812 314.082031 323.667969 314.222656 322.324219 C 314.433594 320.394531 313.875 320.8125 312.128906 320.789062 C 307.203125 320.726562 302.621094 319.953125 297.734375 319.480469 C 295.429688 319.269531 293.257812 318.199219 290.929688 318.207031 C 289 318.214844 287.828125 319.363281 286.277344 320.324219 C 285.554688 320.765625 284.765625 321.078125 283.902344 321.0625 C 282.296875 321.023438 282.578125 322.015625 282.273438 323.550781 C 281.660156 326.667969 281.609375 329.855469 281.667969 333.011719 C 281.785156 338.417969 282.105469 343.6875 281.082031 349.039062 C 280.003906 354.660156 281.25 360.160156 280.589844 365.808594 C 280.34375 367.988281 278.832031 369.761719 278.902344 371.957031 C 278.984375 374.921875 278.878906 376.921875 278.007812 379.785156 C 277.304688 382.128906 278.023438 384.382812 277.839844 386.757812 C 277.636719 389.511719 276.339844 392.023438 276.109375 394.800781 C 275.660156 400.074219 274.582031 405.273438 273.726562 410.484375 C 272.8125 416.09375 272.664062 421.753906 271.851562 427.363281 C 271.46875 430.078125 272.253906 432.785156 272.035156 435.507812 C 271.988281 436.40625 271.308594 437.082031 271.199219 437.972656 C 271.082031 438.8125 271.59375 439.5625 271.546875 440.394531 C 271.476562 442.765625 270.035156 444.859375 270.144531 447.257812 C 270.277344 450.089844 269.5625 452.167969 269.296875 454.914062 C 268.746094 460.707031 268.4375 466.515625 267.964844 472.3125 C 267.722656 475.203125 267.453125 478.097656 267.078125 480.976562 C 266.738281 483.605469 265.558594 485.660156 265.675781 488.40625 C 265.730469 489.777344 265.863281 491.160156 265.636719 492.515625 C 265.441406 493.695312 264.078125 495.121094 264.519531 496.230469 C 265.511719 498.738281 264.023438 502.546875 263.730469 505.285156 C 262.953125 512.511719 260.890625 519.253906 260.355469 526.488281 C 260.082031 530.207031 259.695312 533.765625 258.414062 537.277344 C 256.957031 541.304688 257.46875 544.972656 256.894531 549.101562 C 256.695312 550.472656 255.730469 551.582031 255.46875 552.9375 C 255.136719 554.730469 255.523438 556.6875 255.226562 558.539062 C 254.609375 562.386719 253.382812 566.109375 252.753906 569.957031 C 252.511719 571.4375 253.273438 571.878906 253.226562 573.082031 C 252.683594 574.222656 252.542969 575.527344 252.460938 576.773438 C 252.367188 578.148438 252.359375 579.519531 252.195312 580.894531 C 252.03125 582.320312 251.054688 583.710938 251.296875 584.988281 C 251.542969 586.308594 251.722656 586.996094 251.304688 588.371094 C 250.84375 589.851562 251.046875 591.179688 251.070312 592.792969 C 251.109375 596.683594 250.761719 600.570312 250.402344 604.449219 C 250.101562 607.761719 249.765625 611.082031 249.699219 614.402344 C 249.621094 618.308594 250.363281 622.140625 250.164062 626.050781 C 250 629.167969 249.976562 632.289062 249.882812 635.40625 C 249.78125 638.53125 245.695312 636.878906 247.144531 635.414062 C 243.847656 633.257812 241.398438 628.671875 238.917969 625.351562 C 235.714844 621.078125 233.511719 616.308594 231.011719 611.617188 C 225.574219 601.371094 219.59375 591.425781 213.554688 581.539062 C 212.023438 579.039062 210.777344 577.859375 208.636719 576.007812 C 206.945312 574.539062 205.546875 572.773438 204.167969 571.027344 C 201.398438 567.527344 198.816406 564.0625 196.859375 560.019531 C 194.828125 555.808594 191.964844 550.730469 191.214844 546.097656 C 191.011719 544.894531 191.058594 543.664062 191.429688 542.5 C 190.71875 541.730469 190.136719 540.847656 189.671875 539.910156 C 188.632812 537.8125 188.128906 535.394531 188.484375 533.066406 C 189.175781 533.136719 188.546875 534.238281 189.121094 534.410156 C 190.199219 525.90625 191.183594 517.382812 192.867188 508.976562 C 193.648438 505.050781 194.597656 501.148438 195.789062 497.324219 C 197.125 493.066406 197.960938 489.011719 198.816406 484.628906 C 199.574219 480.65625 200.484375 476.710938 201.570312 472.816406 C 202.71875 468.671875 204.679688 464.601562 205.5 460.40625 C 206.292969 456.410156 207.332031 452.453125 208.644531 448.59375 C 209.339844 446.542969 210.109375 444.519531 210.960938 442.519531 C 211.289062 441.734375 211.636719 440.960938 211.992188 440.183594 C 211.550781 438.789062 211.621094 438.066406 212.0625 436.664062 C 217.40625 419.847656 223.273438 403.203125 228.375 386.316406 C 230.988281 377.628906 233.410156 368.886719 235.496094 360.058594 C 237.28125 357.222656 238.976562 354.328125 240.171875 351.179688 C 241.492188 347.695312 243.871094 344.476562 245.625 341.082031 C 242.328125 341.296875 239.25 342.414062 236.148438 343.4375 C 234.558594 343.964844 232.953125 344.445312 231.316406 344.765625 C 229.769531 345.058594 229.230469 345.820312 227.863281 346.511719 C 222.757812 349.109375 216.585938 347.984375 211.390625 350.300781 C 213.957031 347.804688 217.828125 347.929688 221.136719 347.457031 C 225.109375 346.898438 227.683594 344.097656 231.484375 342.980469 C 235.417969 341.824219 239.519531 341.375 243.4375 340.171875 C 245.230469 339.621094 246.773438 339.171875 247.859375 337.589844 C 248.085938 337.257812 250.140625 334.402344 250.707031 335.425781 C 250.945312 335.859375 249.1875 336.636719 249.480469 337.457031 C 258.121094 334.835938 264.621094 328.585938 271.191406 322.707031 C 274.449219 319.789062 277.824219 316.941406 281.601562 314.707031 C 281.792969 313.429688 283.320312 309.226562 281.808594 308.527344 C 280.972656 308.148438 279.910156 308.246094 279.015625 308.246094 C 278.3125 309.132812 279.589844 308.960938 279.628906 309.636719 C 279.675781 310.464844 267.957031 310.714844 266.390625 311.257812 C 265.566406 311.496094 265.808594 310.90625 265.382812 310.550781 C 264.886719 310.140625 262.882812 310.785156 262.339844 310.859375 C 259.277344 311.3125 256.222656 311.753906 253.15625 312.179688 C 247.796875 312.941406 242.429688 313.660156 237.0625 314.382812 C 234.496094 314.722656 231.921875 315.066406 229.34375 315.398438 C 228.097656 315.5625 227.140625 315.53125 226.09375 316.265625 C 224.953125 317.066406 223.550781 317.964844 222.09375 317.460938 C 222.867188 314.855469 227.445312 314.738281 229.601562 314.367188 C 233.457031 313.707031 237.371094 313.546875 241.265625 313.289062 C 245.058594 313.03125 248.363281 311.9375 252.046875 311.410156 C 256.097656 310.824219 260.277344 310.875 264.226562 309.683594 C 260.953125 308.222656 257.34375 310.449219 253.949219 309.378906 C 260.097656 308.828125 266.257812 307.441406 272.433594 307.285156 C 273.796875 307.246094 276.234375 307.734375 277.21875 306.457031 C 279.777344 303.089844 275.160156 304.429688 273.773438 304.300781 C 273.804688 303.089844 275.953125 303.902344 276.480469 303.152344 C 275.882812 303.019531 275.269531 302.949219 274.65625 302.925781 C 275.78125 301.777344 277.519531 302.554688 278.863281 302.011719 C 278.605469 300.675781 276.355469 301.3125 275.503906 300.722656 C 276.386719 299.675781 277.960938 301.375 278.832031 300.382812 C 278.21875 298.699219 275.84375 299.753906 274.582031 299.390625 C 274.394531 298.132812 276.914062 299.328125 277.273438 298.503906 C 274.875 298.457031 272.476562 298.722656 270.082031 298.730469 C 267.179688 298.746094 265.101562 297.855469 262.433594 297.234375 C 259.953125 296.667969 257.382812 296.621094 254.871094 296.402344 C 252.164062 296.164062 249.566406 294.976562 246.851562 295.164062 C 244.183594 295.347656 241.707031 295.882812 239.03125 295.378906 C 236.277344 294.867188 233.640625 293.835938 230.855469 293.488281 C 225.414062 292.8125 219.496094 295.09375 214.242188 292.945312 C 218.523438 293.246094 222.796875 292.609375 227.070312 292.570312 C 232.355469 292.523438 237.410156 294.664062 242.601562 294.488281 C 247.710938 294.308594 252.480469 294.765625 257.554688 295.542969 C 262.125 296.25 267.320312 298.304688 271.789062 296.195312 C 269.414062 294.046875 265.375 297.722656 263.589844 295.308594 C 266.070312 293.8125 269.429688 295.402344 272.035156 294.292969 C 268.265625 292.71875 263.867188 293.332031 259.90625 292.679688 C 264.394531 291.246094 269.214844 293.710938 273.804688 292.617188 C 269.234375 290.097656 263.324219 290.601562 258.324219 289.71875 C 258.75 288.648438 262.246094 289.773438 263.15625 289.601562 C 262.589844 288.066406 260.609375 288.546875 259.386719 288.632812 C 257.414062 288.769531 255.273438 288.179688 253.367188 287.753906 C 251.691406 287.390625 243.238281 286.414062 243.382812 284.378906 C 242.695312 284.566406 241.617188 284.992188 240.964844 284.433594 C 244.882812 283.363281 248.789062 284.769531 252.558594 285.777344 C 256.808594 286.917969 261.085938 287.058594 265.335938 288.359375 C 269.578125 289.664062 273.859375 291.089844 278.320312 291.421875 C 278.808594 291.003906 278.894531 288.21875 278.402344 288.15625 C 276.542969 287.902344 276.171875 288.273438 276.238281 286.1875 C 276.238281 286.148438 254.730469 280.976562 252.210938 280.503906 C 247.859375 279.671875 243.679688 278.167969 239.34375 277.285156 C 237.257812 276.855469 235.148438 276.5625 233.019531 276.507812 C 231.019531 276.460938 229.058594 275.351562 226.933594 275.089844 C 222.660156 274.554688 218.851562 272.738281 214.667969 272.015625 C 212.808594 271.707031 211.691406 272.34375 209.9375 271.359375 C 208.117188 270.332031 205.152344 270.882812 203.152344 270.867188 C 200.980469 270.855469 198.777344 270.652344 196.777344 269.722656 C 194.648438 270.378906 192.5 269.777344 190.429688 269.277344 C 188.414062 268.796875 186.917969 269.292969 184.960938 269.195312 C 182.332031 269.0625 179.71875 268.628906 177.136719 268.125 C 170.875 266.914062 159.109375 262.199219 153.632812 267.511719 C 152.355469 268.75 151.632812 269.644531 149.839844 270.15625 C 147.484375 270.832031 146.46875 272.335938 144.558594 273.675781 C 143.140625 274.667969 141.433594 274.746094 140.230469 276.113281 C 138.84375 277.695312 138.207031 279.804688 136.585938 281.199219 C 141.175781 286.972656 138.53125 279.53125 136.585938 281.199219 " fill-opacity="1" fill-rule="evenodd"/></g><path fill="#ffffff" d="M 245.617188 379.101562 C 245.371094 382.710938 241.886719 385.820312 240.421875 389.269531 C 241.375 386.277344 243.894531 382.328125 245.617188 379.101562 " fill-opacity="1" fill-rule="evenodd"/></svg>